<mxfile host="app.diagrams.net" agent="Mozilla/5.0 (Windows NT 10.0; Win64; x64) AppleWebKit/537.36 (KHTML, like Gecko) Chrome/140.0.0.0 Safari/537.36" version="28.2.5">
  <diagram name="第 1 页" id="2FHWqFqtE6frPP1b8Zoy">
    <mxGraphModel dx="1806" dy="742" grid="1" gridSize="10" guides="1" tooltips="1" connect="1" arrows="1" fold="1" page="1" pageScale="1" pageWidth="827" pageHeight="1169" math="0" shadow="0">
      <root>
        <mxCell id="0" />
        <mxCell id="1" parent="0" />
        <mxCell id="Z_74KrLZlymUaBfe-bQr-3" value="&lt;font style=&quot;font-size: 24px;&quot;&gt;……&lt;/font&gt;" style="text;html=1;align=center;verticalAlign=middle;whiteSpace=wrap;rounded=0;" parent="1" vertex="1">
          <mxGeometry x="740" y="450" width="80" height="50" as="geometry" />
        </mxCell>
        <mxCell id="Z_74KrLZlymUaBfe-bQr-4" value="&lt;font style=&quot;font-size: 24px;&quot;&gt;Iteration&lt;/font&gt;" style="text;html=1;align=center;verticalAlign=middle;whiteSpace=wrap;rounded=0;" parent="1" vertex="1">
          <mxGeometry x="-30" y="460" width="60" height="30" as="geometry" />
        </mxCell>
        <mxCell id="Z_74KrLZlymUaBfe-bQr-5" value="&lt;font style=&quot;font-size: 24px;&quot;&gt;Iterable&lt;/font&gt;" style="text;html=1;align=center;verticalAlign=middle;whiteSpace=wrap;rounded=0;" parent="1" vertex="1">
          <mxGeometry x="-30" y="290" width="60" height="30" as="geometry" />
        </mxCell>
        <mxCell id="Z_74KrLZlymUaBfe-bQr-6" value="" style="strokeWidth=2;html=1;shape=mxgraph.flowchart.annotation_2;align=left;labelPosition=right;pointerEvents=1;rotation=90;" parent="1" vertex="1">
          <mxGeometry x="368.75" y="-113.75" width="50" height="687.5" as="geometry" />
        </mxCell>
        <mxCell id="Z_74KrLZlymUaBfe-bQr-7" value="&lt;font style=&quot;font-size: 24px;&quot;&gt;for()&lt;/font&gt;" style="text;html=1;align=center;verticalAlign=middle;whiteSpace=wrap;rounded=0;" parent="1" vertex="1">
          <mxGeometry x="363.75" y="170" width="60" height="30" as="geometry" />
        </mxCell>
        <mxCell id="Z_74KrLZlymUaBfe-bQr-8" value="" style="shape=table;startSize=0;container=1;collapsible=0;childLayout=tableLayout;fontSize=16;" parent="1" vertex="1">
          <mxGeometry x="48.75" y="285" width="690" height="40" as="geometry" />
        </mxCell>
        <mxCell id="Z_74KrLZlymUaBfe-bQr-9" value="" style="shape=tableRow;horizontal=0;startSize=0;swimlaneHead=0;swimlaneBody=0;strokeColor=inherit;top=0;left=0;bottom=0;right=0;collapsible=0;dropTarget=0;fillColor=none;points=[[0,0.5],[1,0.5]];portConstraint=eastwest;fontSize=16;" parent="Z_74KrLZlymUaBfe-bQr-8" vertex="1">
          <mxGeometry width="690" height="40" as="geometry" />
        </mxCell>
        <mxCell id="Z_74KrLZlymUaBfe-bQr-10" value="" style="shape=partialRectangle;html=1;whiteSpace=wrap;connectable=0;strokeColor=inherit;overflow=hidden;fillColor=none;top=0;left=0;bottom=0;right=0;pointerEvents=1;fontSize=16;" parent="Z_74KrLZlymUaBfe-bQr-9" vertex="1">
          <mxGeometry width="230" height="40" as="geometry">
            <mxRectangle width="230" height="40" as="alternateBounds" />
          </mxGeometry>
        </mxCell>
        <mxCell id="Z_74KrLZlymUaBfe-bQr-11" value="" style="shape=partialRectangle;html=1;whiteSpace=wrap;connectable=0;strokeColor=inherit;overflow=hidden;fillColor=none;top=0;left=0;bottom=0;right=0;pointerEvents=1;fontSize=16;" parent="Z_74KrLZlymUaBfe-bQr-9" vertex="1">
          <mxGeometry x="230" width="230" height="40" as="geometry">
            <mxRectangle width="230" height="40" as="alternateBounds" />
          </mxGeometry>
        </mxCell>
        <mxCell id="Z_74KrLZlymUaBfe-bQr-12" value="" style="shape=partialRectangle;html=1;whiteSpace=wrap;connectable=0;strokeColor=inherit;overflow=hidden;fillColor=none;top=0;left=0;bottom=0;right=0;pointerEvents=1;fontSize=16;" parent="Z_74KrLZlymUaBfe-bQr-9" vertex="1">
          <mxGeometry x="460" width="230" height="40" as="geometry">
            <mxRectangle width="230" height="40" as="alternateBounds" />
          </mxGeometry>
        </mxCell>
        <mxCell id="Z_74KrLZlymUaBfe-bQr-36" value="" style="shape=partialRectangle;html=1;whiteSpace=wrap;connectable=0;strokeColor=inherit;overflow=hidden;fillColor=none;top=0;left=0;bottom=0;right=0;pointerEvents=1;fontSize=16;" parent="1" vertex="1">
          <mxGeometry x="320" y="380" width="60" height="40" as="geometry">
            <mxRectangle width="60" height="40" as="alternateBounds" />
          </mxGeometry>
        </mxCell>
        <mxCell id="Z_74KrLZlymUaBfe-bQr-37" value="" style="shape=table;startSize=0;container=1;collapsible=0;childLayout=tableLayout;fontSize=16;" parent="1" vertex="1">
          <mxGeometry x="50" y="455" width="690" height="40" as="geometry" />
        </mxCell>
        <mxCell id="Z_74KrLZlymUaBfe-bQr-38" value="" style="shape=tableRow;horizontal=0;startSize=0;swimlaneHead=0;swimlaneBody=0;strokeColor=inherit;top=0;left=0;bottom=0;right=0;collapsible=0;dropTarget=0;fillColor=none;points=[[0,0.5],[1,0.5]];portConstraint=eastwest;fontSize=16;" parent="Z_74KrLZlymUaBfe-bQr-37" vertex="1">
          <mxGeometry width="690" height="40" as="geometry" />
        </mxCell>
        <mxCell id="Z_74KrLZlymUaBfe-bQr-39" value="" style="shape=partialRectangle;html=1;whiteSpace=wrap;connectable=0;strokeColor=inherit;overflow=hidden;fillColor=none;top=0;left=0;bottom=0;right=0;pointerEvents=1;fontSize=16;" parent="Z_74KrLZlymUaBfe-bQr-38" vertex="1">
          <mxGeometry width="230" height="40" as="geometry">
            <mxRectangle width="230" height="40" as="alternateBounds" />
          </mxGeometry>
        </mxCell>
        <mxCell id="Z_74KrLZlymUaBfe-bQr-40" value="" style="shape=partialRectangle;html=1;whiteSpace=wrap;connectable=0;strokeColor=inherit;overflow=hidden;fillColor=none;top=0;left=0;bottom=0;right=0;pointerEvents=1;fontSize=16;" parent="Z_74KrLZlymUaBfe-bQr-38" vertex="1">
          <mxGeometry x="230" width="230" height="40" as="geometry">
            <mxRectangle width="230" height="40" as="alternateBounds" />
          </mxGeometry>
        </mxCell>
        <mxCell id="Z_74KrLZlymUaBfe-bQr-41" value="" style="shape=partialRectangle;html=1;whiteSpace=wrap;connectable=0;strokeColor=inherit;overflow=hidden;fillColor=none;top=0;left=0;bottom=0;right=0;pointerEvents=1;fontSize=16;" parent="Z_74KrLZlymUaBfe-bQr-38" vertex="1">
          <mxGeometry x="460" width="230" height="40" as="geometry">
            <mxRectangle width="230" height="40" as="alternateBounds" />
          </mxGeometry>
        </mxCell>
        <mxCell id="Z_74KrLZlymUaBfe-bQr-42" value="" style="endArrow=classic;html=1;rounded=0;" parent="1" edge="1">
          <mxGeometry width="50" height="50" relative="1" as="geometry">
            <mxPoint x="160" y="495" as="sourcePoint" />
            <mxPoint x="160" y="560" as="targetPoint" />
          </mxGeometry>
        </mxCell>
        <mxCell id="Z_74KrLZlymUaBfe-bQr-43" value="&lt;font style=&quot;font-size: 24px;&quot;&gt;next()&lt;/font&gt;" style="text;html=1;align=center;verticalAlign=middle;whiteSpace=wrap;rounded=0;" parent="1" vertex="1">
          <mxGeometry x="130" y="570" width="60" height="30" as="geometry" />
        </mxCell>
        <mxCell id="Z_74KrLZlymUaBfe-bQr-44" value="" style="endArrow=classic;html=1;rounded=0;" parent="1" edge="1">
          <mxGeometry width="50" height="50" relative="1" as="geometry">
            <mxPoint x="395" y="495" as="sourcePoint" />
            <mxPoint x="395" y="560" as="targetPoint" />
          </mxGeometry>
        </mxCell>
        <mxCell id="Z_74KrLZlymUaBfe-bQr-45" value="&lt;font style=&quot;font-size: 24px;&quot;&gt;next()&lt;/font&gt;" style="text;html=1;align=center;verticalAlign=middle;whiteSpace=wrap;rounded=0;" parent="1" vertex="1">
          <mxGeometry x="365" y="570" width="60" height="30" as="geometry" />
        </mxCell>
        <mxCell id="Z_74KrLZlymUaBfe-bQr-46" value="&lt;font style=&quot;font-size: 24px;&quot;&gt;……&lt;/font&gt;" style="text;html=1;align=center;verticalAlign=middle;whiteSpace=wrap;rounded=0;" parent="1" vertex="1">
          <mxGeometry x="590" y="550" width="80" height="50" as="geometry" />
        </mxCell>
        <mxCell id="Z_74KrLZlymUaBfe-bQr-47" value="" style="endArrow=classic;html=1;rounded=0;" parent="1" edge="1">
          <mxGeometry width="50" height="50" relative="1" as="geometry">
            <mxPoint x="629.66" y="495" as="sourcePoint" />
            <mxPoint x="629.66" y="560" as="targetPoint" />
          </mxGeometry>
        </mxCell>
      </root>
    </mxGraphModel>
  </diagram>
</mxfile>
